# xmcd CD database file
#
# Track frame offsets:
#	150
#	20900
#	49303
#	79200
#	102581
#	120931
#	139991
#	165039
#
# Disc length: 2441 seconds
#
# Revision: 0
# Processed by: cddbd v1.5.2PL0 Copyright (c) Steve Scherf et al.
# Submitted via: CDex 1.70beta2
#
DISCID=65098708
DTITLE=HS French Connection - Jazz meets Klassik
DYEAR=2012
DGENRE=Jazz
TTITLE0=1. Jesus meine Freude
TTITLE1=2. Concerto pour une voix
TTITLE2=3. Sarabande
TTITLE3=4. Pavana
TTITLE4=5. Invention N° 4
TTITLE5=6. Prélude en Mi mineur
TTITLE6=7. Folk Five
TTITLE7=8. Come Sunday
EXTD=YEAR: 2012
EXTT0=
EXTT1=
EXTT2=
EXTT3=
EXTT4=
EXTT5=
EXTT6=
EXTT7=
PLAYORDER=
